<mxfile host="app.diagrams.net" modified="2020-03-29T20:14:47.430Z" agent="5.0 (Macintosh)" etag="gYVMovYbvJClPUFhzFuF" version="12.9.4" type="github" pages="2">
  <diagram id="yXM54rgLqPtb9FQqafVF" name="Architecture">
    <mxGraphModel dx="1005" dy="684" grid="1" gridSize="10" guides="1" tooltips="1" connect="1" arrows="1" fold="1" page="1" pageScale="1" pageWidth="850" pageHeight="1100" math="0" shadow="0">
      <root>
        <mxCell id="0" />
        <mxCell id="1" parent="0" />
        <mxCell id="nOzcpYEFuAjv04r3SC6l-1" value="&lt;font style=&quot;font-size: 20px&quot;&gt;&lt;b&gt;MQ Mail&lt;/b&gt;&lt;/font&gt;" style="text;html=1;strokeColor=none;fillColor=none;align=center;verticalAlign=middle;whiteSpace=wrap;rounded=0;" parent="1" vertex="1">
          <mxGeometry x="240" y="20" width="140" height="30" as="geometry" />
        </mxCell>
        <mxCell id="nOzcpYEFuAjv04r3SC6l-2" value="99.99% availability to users&lt;br&gt;Inbox view &amp;lt;1000ms @ 95th &amp;amp; &amp;lt;500ms @ 50th&lt;br&gt;" style="text;html=1;strokeColor=none;fillColor=none;align=center;verticalAlign=middle;whiteSpace=wrap;rounded=0;" parent="1" vertex="1">
          <mxGeometry x="440" y="30" width="300" height="20" as="geometry" />
        </mxCell>
        <mxCell id="nOzcpYEFuAjv04r3SC6l-8" style="edgeStyle=orthogonalEdgeStyle;rounded=0;orthogonalLoop=1;jettySize=auto;html=1;" parent="1" source="nOzcpYEFuAjv04r3SC6l-4" target="nOzcpYEFuAjv04r3SC6l-7" edge="1">
          <mxGeometry relative="1" as="geometry" />
        </mxCell>
        <mxCell id="nOzcpYEFuAjv04r3SC6l-4" value="MQ Send API" style="rounded=1;whiteSpace=wrap;html=1;" parent="1" vertex="1">
          <mxGeometry x="60" y="205" width="120" height="60" as="geometry" />
        </mxCell>
        <mxCell id="7yV_heJMqzwlbNoD4j5j-35" style="edgeStyle=orthogonalEdgeStyle;rounded=0;orthogonalLoop=1;jettySize=auto;html=1;entryX=1;entryY=0.5;entryDx=0;entryDy=0;" edge="1" parent="1" source="nOzcpYEFuAjv04r3SC6l-5" target="7yV_heJMqzwlbNoD4j5j-1">
          <mxGeometry relative="1" as="geometry" />
        </mxCell>
        <mxCell id="7yV_heJMqzwlbNoD4j5j-37" value="Receive" style="text;html=1;align=center;verticalAlign=middle;resizable=0;points=[];labelBackgroundColor=#ffffff;" vertex="1" connectable="0" parent="7yV_heJMqzwlbNoD4j5j-35">
          <mxGeometry y="1" relative="1" as="geometry">
            <mxPoint as="offset" />
          </mxGeometry>
        </mxCell>
        <mxCell id="nOzcpYEFuAjv04r3SC6l-5" value="&lt;div&gt;Mail API&lt;/div&gt;&lt;div&gt;3rd party&lt;br&gt;&lt;/div&gt;" style="shape=process;whiteSpace=wrap;html=1;backgroundOutline=1;" parent="1" vertex="1">
          <mxGeometry x="420" y="80" width="120" height="60" as="geometry" />
        </mxCell>
        <mxCell id="nOzcpYEFuAjv04r3SC6l-12" style="edgeStyle=orthogonalEdgeStyle;rounded=0;orthogonalLoop=1;jettySize=auto;html=1;entryX=0;entryY=0.5;entryDx=0;entryDy=0;" parent="1" source="nOzcpYEFuAjv04r3SC6l-7" target="nOzcpYEFuAjv04r3SC6l-9" edge="1">
          <mxGeometry relative="1" as="geometry" />
        </mxCell>
        <mxCell id="nOzcpYEFuAjv04r3SC6l-7" value="Send Queue" style="outlineConnect=0;fontColor=#232F3E;gradientColor=none;strokeColor=#232F3E;fillColor=#ffffff;dashed=0;verticalLabelPosition=bottom;verticalAlign=top;align=center;html=1;fontSize=12;fontStyle=0;aspect=fixed;shape=mxgraph.aws4.resourceIcon;resIcon=mxgraph.aws4.queue;" parent="1" vertex="1">
          <mxGeometry x="260" y="205" width="60" height="60" as="geometry" />
        </mxCell>
        <mxCell id="nOzcpYEFuAjv04r3SC6l-17" style="edgeStyle=orthogonalEdgeStyle;rounded=0;orthogonalLoop=1;jettySize=auto;html=1;entryX=0.5;entryY=0;entryDx=0;entryDy=0;" parent="1" source="nOzcpYEFuAjv04r3SC6l-9" target="nOzcpYEFuAjv04r3SC6l-16" edge="1">
          <mxGeometry relative="1" as="geometry" />
        </mxCell>
        <mxCell id="nOzcpYEFuAjv04r3SC6l-25" value="Store as sent" style="text;html=1;align=center;verticalAlign=middle;resizable=0;points=[];labelBackgroundColor=#ffffff;" parent="nOzcpYEFuAjv04r3SC6l-17" vertex="1" connectable="0">
          <mxGeometry x="-0.1667" relative="1" as="geometry">
            <mxPoint as="offset" />
          </mxGeometry>
        </mxCell>
        <mxCell id="nOzcpYEFuAjv04r3SC6l-20" style="edgeStyle=orthogonalEdgeStyle;rounded=0;orthogonalLoop=1;jettySize=auto;html=1;" parent="1" source="nOzcpYEFuAjv04r3SC6l-9" target="nOzcpYEFuAjv04r3SC6l-5" edge="1">
          <mxGeometry relative="1" as="geometry" />
        </mxCell>
        <mxCell id="nOzcpYEFuAjv04r3SC6l-21" value="Send" style="text;html=1;align=center;verticalAlign=middle;resizable=0;points=[];labelBackgroundColor=#ffffff;" parent="nOzcpYEFuAjv04r3SC6l-20" vertex="1" connectable="0">
          <mxGeometry x="-0.0667" relative="1" as="geometry">
            <mxPoint as="offset" />
          </mxGeometry>
        </mxCell>
        <mxCell id="nOzcpYEFuAjv04r3SC6l-9" value="MQ Send Gateway" style="rounded=1;whiteSpace=wrap;html=1;" parent="1" vertex="1">
          <mxGeometry x="370" y="205" width="120" height="60" as="geometry" />
        </mxCell>
        <mxCell id="nOzcpYEFuAjv04r3SC6l-24" style="edgeStyle=orthogonalEdgeStyle;rounded=0;orthogonalLoop=1;jettySize=auto;html=1;" parent="1" source="nOzcpYEFuAjv04r3SC6l-13" target="nOzcpYEFuAjv04r3SC6l-23" edge="1">
          <mxGeometry relative="1" as="geometry" />
        </mxCell>
        <mxCell id="nOzcpYEFuAjv04r3SC6l-13" value="MQ Webhook API" style="rounded=1;whiteSpace=wrap;html=1;" parent="1" vertex="1">
          <mxGeometry x="540" y="200" width="120" height="60" as="geometry" />
        </mxCell>
        <mxCell id="nOzcpYEFuAjv04r3SC6l-16" value="Message Store API" style="rounded=1;whiteSpace=wrap;html=1;" parent="1" vertex="1">
          <mxGeometry x="260" y="340" width="120" height="60" as="geometry" />
        </mxCell>
        <mxCell id="nOzcpYEFuAjv04r3SC6l-36" style="edgeStyle=orthogonalEdgeStyle;rounded=0;orthogonalLoop=1;jettySize=auto;html=1;entryX=0.75;entryY=1;entryDx=0;entryDy=0;" parent="1" source="nOzcpYEFuAjv04r3SC6l-18" target="7yV_heJMqzwlbNoD4j5j-21" edge="1">
          <mxGeometry relative="1" as="geometry">
            <mxPoint x="70" y="410" as="targetPoint" />
            <Array as="points">
              <mxPoint x="700" y="580" />
            </Array>
          </mxGeometry>
        </mxCell>
        <mxCell id="nOzcpYEFuAjv04r3SC6l-37" value="Notify" style="text;html=1;align=center;verticalAlign=middle;resizable=0;points=[];labelBackgroundColor=#ffffff;" parent="nOzcpYEFuAjv04r3SC6l-36" vertex="1" connectable="0">
          <mxGeometry x="0.2211" y="-3" relative="1" as="geometry">
            <mxPoint as="offset" />
          </mxGeometry>
        </mxCell>
        <mxCell id="nOzcpYEFuAjv04r3SC6l-18" value="NotificationGateway API" style="rounded=1;whiteSpace=wrap;html=1;" parent="1" vertex="1">
          <mxGeometry x="560" y="545" width="120" height="60" as="geometry" />
        </mxCell>
        <mxCell id="7yV_heJMqzwlbNoD4j5j-9" style="edgeStyle=orthogonalEdgeStyle;rounded=0;orthogonalLoop=1;jettySize=auto;html=1;entryX=1;entryY=0.5;entryDx=0;entryDy=0;" edge="1" parent="1" source="nOzcpYEFuAjv04r3SC6l-23" target="nOzcpYEFuAjv04r3SC6l-28">
          <mxGeometry relative="1" as="geometry">
            <Array as="points">
              <mxPoint x="610" y="440" />
            </Array>
          </mxGeometry>
        </mxCell>
        <mxCell id="nOzcpYEFuAjv04r3SC6l-23" value="Receive Queue" style="outlineConnect=0;fontColor=#232F3E;gradientColor=none;strokeColor=#232F3E;fillColor=#ffffff;dashed=0;verticalLabelPosition=bottom;verticalAlign=top;align=center;html=1;fontSize=12;fontStyle=0;aspect=fixed;shape=mxgraph.aws4.resourceIcon;resIcon=mxgraph.aws4.queue;" parent="1" vertex="1">
          <mxGeometry x="570" y="300" width="60" height="60" as="geometry" />
        </mxCell>
        <mxCell id="nOzcpYEFuAjv04r3SC6l-26" value="&lt;div&gt;Messages&lt;/div&gt;&lt;div&gt;DB&lt;br&gt;&lt;/div&gt;" style="shape=cylinder;whiteSpace=wrap;html=1;boundedLbl=1;backgroundOutline=1;" parent="1" vertex="1">
          <mxGeometry x="285" y="450" width="60" height="80" as="geometry" />
        </mxCell>
        <mxCell id="nOzcpYEFuAjv04r3SC6l-30" value="Store in inbox" style="edgeStyle=orthogonalEdgeStyle;rounded=0;orthogonalLoop=1;jettySize=auto;html=1;entryX=1;entryY=0.25;entryDx=0;entryDy=0;" parent="1" edge="1">
          <mxGeometry relative="1" as="geometry">
            <Array as="points">
              <mxPoint x="533" y="370" />
              <mxPoint x="393" y="370" />
            </Array>
            <mxPoint x="533" y="410" as="sourcePoint" />
            <mxPoint x="393" y="365" as="targetPoint" />
          </mxGeometry>
        </mxCell>
        <mxCell id="7yV_heJMqzwlbNoD4j5j-12" style="edgeStyle=orthogonalEdgeStyle;rounded=0;orthogonalLoop=1;jettySize=auto;html=1;" edge="1" parent="1" source="nOzcpYEFuAjv04r3SC6l-28" target="nOzcpYEFuAjv04r3SC6l-32">
          <mxGeometry relative="1" as="geometry" />
        </mxCell>
        <mxCell id="7yV_heJMqzwlbNoD4j5j-13" value="notify" style="text;html=1;align=center;verticalAlign=middle;resizable=0;points=[];labelBackgroundColor=#ffffff;" vertex="1" connectable="0" parent="7yV_heJMqzwlbNoD4j5j-12">
          <mxGeometry x="0.12" y="-1" relative="1" as="geometry">
            <mxPoint as="offset" />
          </mxGeometry>
        </mxCell>
        <mxCell id="nOzcpYEFuAjv04r3SC6l-28" value="MQ Receive Handler" style="rounded=1;whiteSpace=wrap;html=1;" parent="1" vertex="1">
          <mxGeometry x="440" y="410" width="120" height="60" as="geometry" />
        </mxCell>
        <mxCell id="7yV_heJMqzwlbNoD4j5j-26" style="edgeStyle=orthogonalEdgeStyle;rounded=0;orthogonalLoop=1;jettySize=auto;html=1;entryX=-0.008;entryY=0.617;entryDx=0;entryDy=0;entryPerimeter=0;" edge="1" parent="1" source="nOzcpYEFuAjv04r3SC6l-32" target="nOzcpYEFuAjv04r3SC6l-18">
          <mxGeometry relative="1" as="geometry" />
        </mxCell>
        <mxCell id="nOzcpYEFuAjv04r3SC6l-32" value="Notification Queue" style="outlineConnect=0;fontColor=#232F3E;gradientColor=none;strokeColor=#232F3E;fillColor=#ffffff;dashed=0;verticalLabelPosition=bottom;verticalAlign=top;align=center;html=1;fontSize=12;fontStyle=0;aspect=fixed;shape=mxgraph.aws4.resourceIcon;resIcon=mxgraph.aws4.queue;" parent="1" vertex="1">
          <mxGeometry x="430" y="552" width="60" height="60" as="geometry" />
        </mxCell>
        <mxCell id="7yV_heJMqzwlbNoD4j5j-5" style="edgeStyle=orthogonalEdgeStyle;rounded=0;orthogonalLoop=1;jettySize=auto;html=1;entryX=1;entryY=0.5;entryDx=0;entryDy=0;" edge="1" parent="1" source="7yV_heJMqzwlbNoD4j5j-1" target="7yV_heJMqzwlbNoD4j5j-4">
          <mxGeometry relative="1" as="geometry" />
        </mxCell>
        <mxCell id="7yV_heJMqzwlbNoD4j5j-6" style="edgeStyle=orthogonalEdgeStyle;rounded=0;orthogonalLoop=1;jettySize=auto;html=1;entryX=0.667;entryY=0;entryDx=0;entryDy=0;entryPerimeter=0;exitX=0.5;exitY=1;exitDx=0;exitDy=0;" edge="1" parent="1" source="7yV_heJMqzwlbNoD4j5j-1" target="nOzcpYEFuAjv04r3SC6l-4">
          <mxGeometry relative="1" as="geometry" />
        </mxCell>
        <mxCell id="7yV_heJMqzwlbNoD4j5j-7" value="Send" style="text;html=1;align=center;verticalAlign=middle;resizable=0;points=[];labelBackgroundColor=#ffffff;" vertex="1" connectable="0" parent="7yV_heJMqzwlbNoD4j5j-6">
          <mxGeometry x="-0.0333" y="1" relative="1" as="geometry">
            <mxPoint as="offset" />
          </mxGeometry>
        </mxCell>
        <mxCell id="7yV_heJMqzwlbNoD4j5j-38" style="edgeStyle=orthogonalEdgeStyle;rounded=0;orthogonalLoop=1;jettySize=auto;html=1;entryX=0.5;entryY=0;entryDx=0;entryDy=0;" edge="1" parent="1" source="7yV_heJMqzwlbNoD4j5j-1" target="nOzcpYEFuAjv04r3SC6l-13">
          <mxGeometry relative="1" as="geometry">
            <Array as="points">
              <mxPoint x="300" y="180" />
              <mxPoint x="600" y="180" />
            </Array>
          </mxGeometry>
        </mxCell>
        <mxCell id="7yV_heJMqzwlbNoD4j5j-39" value="Receive" style="text;html=1;align=center;verticalAlign=middle;resizable=0;points=[];labelBackgroundColor=#ffffff;" vertex="1" connectable="0" parent="7yV_heJMqzwlbNoD4j5j-38">
          <mxGeometry x="0.8" y="-1" relative="1" as="geometry">
            <mxPoint as="offset" />
          </mxGeometry>
        </mxCell>
        <mxCell id="7yV_heJMqzwlbNoD4j5j-1" value="MQ API Gateway" style="rounded=1;whiteSpace=wrap;html=1;" vertex="1" parent="1">
          <mxGeometry x="240" y="80" width="120" height="60" as="geometry" />
        </mxCell>
        <mxCell id="7yV_heJMqzwlbNoD4j5j-3" value="" style="shape=link;html=1;" edge="1" parent="1">
          <mxGeometry width="50" height="50" relative="1" as="geometry">
            <mxPoint x="40" y="160" as="sourcePoint" />
            <mxPoint x="760" y="160" as="targetPoint" />
          </mxGeometry>
        </mxCell>
        <mxCell id="7yV_heJMqzwlbNoD4j5j-4" value="&lt;div&gt;Authentication&lt;/div&gt;&lt;div&gt;Authorization API&lt;br&gt;&lt;/div&gt;" style="rounded=1;whiteSpace=wrap;html=1;" vertex="1" parent="1">
          <mxGeometry x="60" y="80" width="120" height="60" as="geometry" />
        </mxCell>
        <mxCell id="7yV_heJMqzwlbNoD4j5j-14" value="MQ Send API" style="rounded=1;whiteSpace=wrap;html=1;" vertex="1" parent="1">
          <mxGeometry x="70" y="215" width="120" height="60" as="geometry" />
        </mxCell>
        <mxCell id="7yV_heJMqzwlbNoD4j5j-15" value="MQ Send Gateway" style="rounded=1;whiteSpace=wrap;html=1;" vertex="1" parent="1">
          <mxGeometry x="380" y="215" width="120" height="60" as="geometry" />
        </mxCell>
        <mxCell id="7yV_heJMqzwlbNoD4j5j-16" value="MQ Webhook API" style="rounded=1;whiteSpace=wrap;html=1;" vertex="1" parent="1">
          <mxGeometry x="550" y="210" width="120" height="60" as="geometry" />
        </mxCell>
        <mxCell id="7yV_heJMqzwlbNoD4j5j-27" style="edgeStyle=orthogonalEdgeStyle;rounded=0;orthogonalLoop=1;jettySize=auto;html=1;entryX=0.75;entryY=-0.012;entryDx=0;entryDy=0;entryPerimeter=0;" edge="1" parent="1" source="7yV_heJMqzwlbNoD4j5j-17" target="nOzcpYEFuAjv04r3SC6l-26">
          <mxGeometry relative="1" as="geometry" />
        </mxCell>
        <mxCell id="7yV_heJMqzwlbNoD4j5j-32" style="edgeStyle=orthogonalEdgeStyle;rounded=0;orthogonalLoop=1;jettySize=auto;html=1;" edge="1" parent="1" source="7yV_heJMqzwlbNoD4j5j-17" target="7yV_heJMqzwlbNoD4j5j-30">
          <mxGeometry relative="1" as="geometry" />
        </mxCell>
        <mxCell id="7yV_heJMqzwlbNoD4j5j-17" value="Message Store API" style="rounded=1;whiteSpace=wrap;html=1;" vertex="1" parent="1">
          <mxGeometry x="270" y="350" width="120" height="60" as="geometry" />
        </mxCell>
        <mxCell id="7yV_heJMqzwlbNoD4j5j-18" value="MQ Receive Handler" style="rounded=1;whiteSpace=wrap;html=1;" vertex="1" parent="1">
          <mxGeometry x="450" y="420" width="120" height="60" as="geometry" />
        </mxCell>
        <mxCell id="7yV_heJMqzwlbNoD4j5j-19" value="NotificationGateway API" style="rounded=1;whiteSpace=wrap;html=1;" vertex="1" parent="1">
          <mxGeometry x="570" y="555" width="120" height="60" as="geometry" />
        </mxCell>
        <mxCell id="7yV_heJMqzwlbNoD4j5j-20" value="&lt;div&gt;Messages&lt;/div&gt;&lt;div&gt;DB&lt;br&gt;&lt;/div&gt;" style="shape=cylinder;whiteSpace=wrap;html=1;boundedLbl=1;backgroundOutline=1;" vertex="1" parent="1">
          <mxGeometry x="295" y="460" width="60" height="80" as="geometry" />
        </mxCell>
        <mxCell id="7yV_heJMqzwlbNoD4j5j-21" value="External Notification API" style="shape=process;whiteSpace=wrap;html=1;backgroundOutline=1;" vertex="1" parent="1">
          <mxGeometry x="610" y="80" width="120" height="60" as="geometry" />
        </mxCell>
        <mxCell id="7yV_heJMqzwlbNoD4j5j-29" style="edgeStyle=orthogonalEdgeStyle;rounded=0;orthogonalLoop=1;jettySize=auto;html=1;entryX=0.5;entryY=0;entryDx=0;entryDy=0;" edge="1" parent="1" source="7yV_heJMqzwlbNoD4j5j-25" target="7yV_heJMqzwlbNoD4j5j-28">
          <mxGeometry relative="1" as="geometry" />
        </mxCell>
        <mxCell id="7yV_heJMqzwlbNoD4j5j-25" value="Message Reverse Index API" style="rounded=1;whiteSpace=wrap;html=1;" vertex="1" parent="1">
          <mxGeometry x="60" y="320" width="120" height="60" as="geometry" />
        </mxCell>
        <mxCell id="7yV_heJMqzwlbNoD4j5j-28" value="Reverse Index" style="shape=datastore;whiteSpace=wrap;html=1;" vertex="1" parent="1">
          <mxGeometry x="90" y="450" width="60" height="60" as="geometry" />
        </mxCell>
        <mxCell id="7yV_heJMqzwlbNoD4j5j-34" style="edgeStyle=orthogonalEdgeStyle;rounded=0;orthogonalLoop=1;jettySize=auto;html=1;entryX=0.75;entryY=1;entryDx=0;entryDy=0;" edge="1" parent="1" source="7yV_heJMqzwlbNoD4j5j-30" target="7yV_heJMqzwlbNoD4j5j-33">
          <mxGeometry relative="1" as="geometry" />
        </mxCell>
        <mxCell id="7yV_heJMqzwlbNoD4j5j-30" value="Reverse Index Queue" style="outlineConnect=0;fontColor=#232F3E;gradientColor=none;strokeColor=#232F3E;fillColor=#ffffff;dashed=0;verticalLabelPosition=bottom;verticalAlign=top;align=center;html=1;fontSize=12;fontStyle=0;aspect=fixed;shape=mxgraph.aws4.resourceIcon;resIcon=mxgraph.aws4.queue;" vertex="1" parent="1">
          <mxGeometry x="190" y="430" width="60" height="60" as="geometry" />
        </mxCell>
        <mxCell id="7yV_heJMqzwlbNoD4j5j-33" value="Message Reverse Index API" style="rounded=1;whiteSpace=wrap;html=1;" vertex="1" parent="1">
          <mxGeometry x="70" y="330" width="120" height="60" as="geometry" />
        </mxCell>
        <mxCell id="eLAOrMO5jHREG8Rj_97V-1" value="Blob Store API&lt;br&gt;(Future attachments)" style="rounded=1;whiteSpace=wrap;html=1;" vertex="1" parent="1">
          <mxGeometry x="90" y="560" width="120" height="60" as="geometry" />
        </mxCell>
        <mxCell id="eLAOrMO5jHREG8Rj_97V-2" value="Blob Store" style="shape=cylinder;whiteSpace=wrap;html=1;boundedLbl=1;backgroundOutline=1;" vertex="1" parent="1">
          <mxGeometry x="260" y="560" width="60" height="80" as="geometry" />
        </mxCell>
        <mxCell id="eLAOrMO5jHREG8Rj_97V-5" style="edgeStyle=orthogonalEdgeStyle;rounded=0;orthogonalLoop=1;jettySize=auto;html=1;" edge="1" parent="1" source="eLAOrMO5jHREG8Rj_97V-3" target="eLAOrMO5jHREG8Rj_97V-2">
          <mxGeometry relative="1" as="geometry" />
        </mxCell>
        <mxCell id="eLAOrMO5jHREG8Rj_97V-3" value="Blob Store API&lt;br&gt;(Future attachments)" style="rounded=1;whiteSpace=wrap;html=1;" vertex="1" parent="1">
          <mxGeometry x="100" y="570" width="120" height="60" as="geometry" />
        </mxCell>
        <mxCell id="eLAOrMO5jHREG8Rj_97V-4" value="Blob Store" style="shape=cylinder;whiteSpace=wrap;html=1;boundedLbl=1;backgroundOutline=1;" vertex="1" parent="1">
          <mxGeometry x="270" y="570" width="60" height="80" as="geometry" />
        </mxCell>
      </root>
    </mxGraphModel>
  </diagram>
  <diagram id="gKucidJfPwkW_zegjTYC" name="Database">
    <mxGraphModel dx="1005" dy="684" grid="1" gridSize="10" guides="1" tooltips="1" connect="1" arrows="1" fold="1" page="1" pageScale="1" pageWidth="850" pageHeight="1100" math="0" shadow="0">
      <root>
        <mxCell id="OkEBHj06dpLLMknfeyw1-0" />
        <mxCell id="OkEBHj06dpLLMknfeyw1-1" parent="OkEBHj06dpLLMknfeyw1-0" />
        <mxCell id="xOxyOyOnQ2RIrZKTn9IS-0" value="&lt;h1&gt;Users&lt;br&gt;&lt;/h1&gt;&lt;p&gt;- id (PK)&lt;br&gt;- email&lt;br&gt;- password&lt;br&gt;- created_time&lt;br&gt;- updated_time&lt;br&gt;&lt;/p&gt;" style="text;html=1;strokeColor=none;fillColor=none;spacing=5;spacingTop=-20;whiteSpace=wrap;overflow=hidden;rounded=0;" vertex="1" parent="OkEBHj06dpLLMknfeyw1-1">
          <mxGeometry x="90" y="60" width="190" height="120" as="geometry" />
        </mxCell>
        <mxCell id="xOxyOyOnQ2RIrZKTn9IS-1" value="Assuming password is encrypted with strong encryption with salt" style="shape=note;strokeWidth=2;fontSize=14;size=20;whiteSpace=wrap;html=1;fillColor=#fff2cc;strokeColor=#d6b656;fontColor=#666600;" vertex="1" parent="OkEBHj06dpLLMknfeyw1-1">
          <mxGeometry x="270" y="80" width="180" height="80" as="geometry" />
        </mxCell>
        <mxCell id="xOxyOyOnQ2RIrZKTn9IS-2" value="&lt;h1&gt;Emails&lt;br&gt;&lt;/h1&gt;&lt;p&gt;- id (PK)&lt;br&gt;- external_id (Unique)&lt;br&gt;- user_id&lt;br&gt;- flags (READ|DRAFT|SENT|DELETED, etc)&lt;br&gt;- to&lt;br&gt;- from&lt;br&gt;- subject&lt;br&gt;- message&lt;br&gt;- created_time&lt;br&gt;- updated_time&lt;br&gt;&lt;/p&gt;" style="text;html=1;strokeColor=none;fillColor=none;spacing=5;spacingTop=-20;whiteSpace=wrap;overflow=hidden;rounded=0;" vertex="1" parent="OkEBHj06dpLLMknfeyw1-1">
          <mxGeometry x="90" y="260" width="260" height="220" as="geometry" />
        </mxCell>
        <mxCell id="xOxyOyOnQ2RIrZKTn9IS-3" value="Assuming password is encrypted with strong encryption with salt" style="shape=note;strokeWidth=2;fontSize=14;size=20;whiteSpace=wrap;html=1;fillColor=#fff2cc;strokeColor=#d6b656;fontColor=#666600;" vertex="1" parent="OkEBHj06dpLLMknfeyw1-1">
          <mxGeometry x="400" y="300" width="180" height="80" as="geometry" />
        </mxCell>
      </root>
    </mxGraphModel>
  </diagram>
</mxfile>
